<?xml version="1.0" standalone="no"?>
<!DOCTYPE svg PUBLIC "-//W3C//DTD SVG 20010904//EN"
 "http://www.w3.org/TR/2001/REC-SVG-20010904/DTD/svg10.dtd">
<svg version="1.0" xmlns="http://www.w3.org/2000/svg"
 width="506.000000pt" height="493.000000pt" viewBox="0 0 506.000000 493.000000"
 preserveAspectRatio="xMidYMid meet">

<g transform="translate(0.000000,493.000000) scale(0.100000,-0.100000)"
fill="#000000" stroke="none">
<path d="M3425 4835 c-287 -52 -528 -186 -850 -471 -119 -105 -538 -514 -533
-519 2 -2 50 3 107 12 94 15 114 15 230 0 69 -9 167 -28 216 -43 50 -15 100
-27 112 -28 14 -1 52 29 115 90 198 192 310 281 433 342 107 53 173 73 264 81
169 14 318 -19 477 -103 169 -90 260 -181 339 -341 64 -129 79 -196 78 -345 0
-187 -42 -316 -148 -465 -51 -70 -895 -916 -974 -975 -73 -55 -201 -117 -291
-141 -160 -42 -369 -34 -512 21 -177 66 -380 271 -484 488 -20 39 -38 72 -42
72 -4 0 -92 -84 -195 -186 -172 -170 -188 -188 -182 -212 4 -15 40 -78 82
-141 293 -446 619 -637 1088 -636 309 1 567 85 777 254 68 54 986 968 1080
1074 165 187 284 421 334 657 28 133 24 338 -9 461 -67 256 -185 456 -382 654
-194 195 -409 318 -675 384 -133 33 -326 40 -455 16z"/>
<path d="M2130 3523 c-143 -11 -345 -65 -464 -125 -150 -75 -190 -110 -737
-657 -471 -471 -543 -548 -602 -636 -123 -186 -181 -341 -212 -570 -48 -343
56 -718 272 -978 68 -81 213 -213 296 -269 213 -143 433 -215 693 -225 289
-12 533 52 751 198 71 48 410 375 675 653 l77 81 -247 0 c-234 0 -250 1 -309
23 -38 14 -68 20 -76 15 -8 -4 -77 -68 -153 -142 -161 -156 -229 -208 -330
-256 -128 -61 -212 -79 -359 -79 -159 0 -245 21 -383 95 -158 84 -220 137
-299 256 -96 143 -128 257 -128 458 0 139 2 157 29 239 52 158 86 200 530 641
567 564 555 553 678 613 222 109 448 128 650 56 191 -69 366 -235 505 -478 26
-47 53 -86 58 -86 6 0 95 86 198 190 l188 190 -30 55 c-47 86 -125 197 -205
293 -191 230 -422 374 -681 426 -78 15 -294 26 -385 19z"/>
</g>
</svg>
